<?xml version="1.0" standalone="no"?>
<!DOCTYPE svg PUBLIC "-//W3C//DTD SVG 20010904//EN"
 "http://www.w3.org/TR/2001/REC-SVG-20010904/DTD/svg10.dtd">
<svg version="1.0" xmlns="http://www.w3.org/2000/svg"
 width="1726.000000pt" height="339.000000pt" viewBox="0 0 1726.000000 339.000000"
 preserveAspectRatio="xMidYMid meet">

<g transform="translate(0.000000,339.000000) scale(0.100000,-0.100000)"
fill="#000000" stroke="none">
<path d="M10 1695 l0 -1685 375 0 375 0 0 135 0 135 -255 0 -255 0 0 1415 0
1415 255 0 255 0 0 135 0 135 -375 0 -375 0 0 -1685z"/>
<path d="M2922 3243 l3 -128 258 -3 257 -2 0 -1420 0 -1420 -260 0 -260 0 0
-130 0 -130 380 0 380 0 0 1680 0 1680 -380 0 -381 0 3 -127z"/>
<path d="M496 2965 c-22 -7 -53 -28 -70 -45 l-31 -30 0 -321 0 -321 37 -33
c57 -52 87 -56 406 -53 428 4 402 -22 402 408 0 344 -1 348 -76 386 -35 17
-66 19 -334 21 -234 2 -303 0 -334 -12z m464 -395 l0 -200 -145 0 -145 0 0
200 0 200 145 0 145 0 0 -200z"/>
<path d="M1307 2962 c-13 -14 -17 -37 -17 -89 0 -86 14 -103 83 -103 l47 0 0
-200 0 -200 -48 0 c-68 0 -82 -18 -82 -107 0 -107 -10 -103 277 -103 282 0
268 -5 268 105 0 89 -10 103 -78 107 l-52 3 -5 285 c-3 157 -7 286 -8 287 -1
1 -15 9 -32 18 -22 11 -65 15 -183 15 -136 0 -156 -2 -170 -18z"/>
<path d="M1987 2966 c-51 -19 -85 -52 -98 -95 -6 -23 -9 -143 -7 -323 3 -273
4 -288 24 -315 12 -15 36 -37 55 -48 32 -19 52 -20 349 -20 313 0 315 0 353
23 66 42 67 46 67 384 0 342 -1 346 -76 384 -35 17 -66 19 -334 21 -232 2
-303 0 -333 -11z m463 -396 l0 -200 -145 0 -145 0 0 200 0 200 145 0 145 0 0
-200z"/>
<path d="M2796 2958 c-10 -14 -16 -44 -16 -83 0 -84 16 -105 81 -105 l49 0 0
-200 0 -200 -49 0 c-65 0 -81 -21 -81 -105 0 -39 6 -69 16 -83 15 -22 18 -22
258 -22 280 0 268 -4 274 94 4 89 -10 110 -78 116 l-55 5 -5 285 c-3 157 -7
286 -8 287 -1 1 -15 9 -32 18 -22 11 -65 15 -184 15 -149 0 -155 -1 -170 -22z"/>
<path d="M4479 2361 c-46 -15 -66 -30 -83 -65 -14 -30 -16 -90 -16 -496 0
-511 0 -514 63 -547 38 -19 128 -28 202 -18 42 5 65 14 88 35 l32 28 5 228 5
228 180 -209 c206 -240 224 -259 279 -288 55 -30 213 -32 264 -4 62 34 62 37
62 547 0 510 0 513 -62 547 -47 25 -219 26 -265 0 -55 -29 -58 -43 -63 -280
l-5 -219 -197 229 c-109 125 -213 238 -231 250 -19 12 -52 26 -73 32 -44 12
-146 13 -185 2z"/>
<path d="M5823 2360 c-49 -10 -99 -34 -131 -64 -52 -47 -52 -45 -52 -498 l0
-423 25 -37 c33 -48 95 -84 169 -97 80 -15 700 -14 783 0 76 13 148 58 175
109 17 32 18 67 18 450 0 383 -1 418 -18 450 -27 51 -99 96 -175 109 -74 13
-729 13 -794 1z m602 -560 l0 -275 -200 0 -200 0 -3 265 c-1 146 0 270 3 278
3 10 48 12 202 10 l198 -3 0 -275z"/>
<path d="M6970 2357 c-19 -7 -44 -27 -57 -46 l-23 -34 0 -477 0 -477 23 -34
c30 -45 87 -62 192 -56 155 8 168 26 175 237 l5 155 74 -167 c40 -92 83 -176
96 -188 58 -55 220 -53 272 2 12 13 55 100 97 193 l75 170 1 -148 c0 -169 10
-205 62 -234 47 -26 219 -26 265 0 64 34 63 27 63 550 l0 474 -23 34 c-32 47
-71 58 -220 58 -137 1 -176 -8 -213 -50 -12 -13 -70 -133 -130 -266 -60 -133
-111 -243 -114 -243 -3 0 -54 108 -114 240 -60 133 -118 252 -129 267 -34 43
-74 53 -214 52 -72 0 -143 -5 -163 -12z"/>
<path d="M8627 2356 c-69 -15 -134 -58 -158 -106 -14 -27 -29 -139 -63 -473
-41 -393 -44 -442 -32 -472 23 -54 64 -70 181 -70 157 0 182 21 200 165 l10
85 182 3 182 2 5 -32 c3 -18 8 -60 12 -92 8 -83 46 -121 128 -131 78 -10 168
-1 204 21 36 21 52 52 52 102 0 63 -80 825 -90 864 -12 44 -81 108 -137 128
-54 19 -595 24 -676 6z m447 -318 c7 -54 26 -234 26 -248 0 -6 -53 -10 -150
-10 l-150 0 0 28 c0 35 20 243 25 260 3 9 37 12 124 12 l120 0 5 -42z"/>
<path d="M9799 2360 c-52 -9 -103 -33 -137 -64 -52 -47 -52 -45 -52 -498 0
-481 -3 -461 85 -517 67 -42 140 -51 421 -51 339 0 413 18 536 129 105 94 128
173 128 441 0 269 -22 343 -129 443 -59 55 -151 102 -230 117 -62 11 -553 12
-622 0z m507 -305 c79 -39 84 -54 84 -260 l0 -177 -38 -38 c-50 -50 -96 -61
-239 -58 l-118 3 -3 278 -2 277 133 0 c122 0 137 -2 183 -25z"/>
<path d="M10943 2359 c-17 -5 -43 -23 -57 -40 l-26 -31 0 -451 c0 -514 -3
-495 83 -554 74 -50 128 -54 615 -51 l434 3 19 24 c28 34 28 208 0 242 l-19
24 -376 3 -376 3 0 379 0 378 -26 31 c-14 17 -42 35 -62 41 -45 12 -165 12
-209 -1z"/>
<path d="M12383 2360 c-94 -20 -165 -73 -183 -138 -9 -34 -89 -777 -93 -864
-2 -47 19 -86 57 -105 37 -19 127 -28 202 -18 47 6 64 13 90 39 28 28 33 41
39 101 3 39 8 80 11 93 l4 22 183 -2 182 -3 10 -87 c12 -104 32 -137 96 -156
59 -18 193 -11 237 12 67 35 67 33 17 517 -48 465 -54 492 -110 535 -71 54
-97 58 -410 60 -159 2 -309 -1 -332 -6z m444 -400 c6 -63 12 -130 12 -147 l1
-33 -150 0 c-125 0 -150 2 -150 15 0 21 20 215 26 253 l5 33 122 -3 122 -3 12
-115z"/>
<path d="M13529 2356 c-73 -16 -133 -56 -159 -106 -19 -37 -20 -58 -20 -446 0
-395 1 -409 21 -452 12 -25 37 -53 58 -67 76 -49 91 -50 506 -50 439 0 456 2
530 67 58 51 68 89 63 248 -4 153 -16 182 -95 220 -29 14 -52 27 -52 30 0 3
23 16 52 30 79 38 91 67 95 220 2 73 -1 143 -7 167 -13 49 -78 112 -138 133
-53 19 -772 25 -854 6z m611 -319 c0 -23 -7 -53 -16 -65 -15 -21 -20 -22 -205
-22 l-189 0 0 58 c0 32 3 62 7 65 3 4 96 7 205 7 l198 0 0 -43z m-21 -401 c18
-16 21 -29 19 -65 l-3 -46 -200 0 -200 0 -3 54 c-5 87 -16 83 187 79 161 -3
181 -5 200 -22z"/>
<path d="M14779 2332 c-45 -23 -59 -37 -81 -81 l-28 -55 0 -401 0 -401 28 -55
c22 -45 36 -59 81 -82 l55 -27 1126 0 1126 0 55 28 c45 23 58 36 82 82 l28 55
-3 410 c-3 394 -4 412 -24 450 -13 25 -39 51 -69 70 l-48 30 -1137 3 -1137 2
-54 -28z m2305 -138 c14 -13 16 -64 16 -399 0 -335 -2 -386 -16 -399 -14 -14
-130 -16 -1124 -16 -994 0 -1110 2 -1124 16 -14 13 -16 64 -16 399 0 335 2
386 16 399 14 14 130 16 1124 16 994 0 1110 -2 1124 -16z"/>
<path d="M14946 2109 c-21 -16 -26 -29 -26 -64 0 -35 5 -48 26 -64 44 -35 160
-26 186 13 4 6 8 29 8 51 0 22 -4 45 -8 51 -26 39 -142 48 -186 13z"/>
<path d="M15216 2109 c-21 -16 -26 -29 -26 -64 0 -35 5 -48 26 -64 44 -35 160
-26 186 13 4 6 8 29 8 51 0 22 -4 45 -8 51 -26 39 -142 48 -186 13z"/>
<path d="M15486 2107 c-35 -35 -35 -89 -1 -122 20 -21 34 -25 80 -25 55 0 93
12 107 34 13 19 9 91 -6 111 -11 15 -30 20 -84 23 -65 4 -73 2 -96 -21z"/>
<path d="M15756 2107 c-35 -35 -35 -89 -1 -122 20 -21 34 -25 80 -25 55 0 93
12 107 34 13 19 9 91 -6 111 -11 15 -30 20 -84 23 -65 4 -73 2 -96 -21z"/>
<path d="M16026 2107 c-35 -35 -35 -89 -1 -122 20 -21 34 -25 80 -25 55 0 93
12 107 34 13 19 9 91 -6 111 -11 15 -30 20 -84 23 -65 4 -73 2 -96 -21z"/>
<path d="M16296 2107 c-35 -35 -35 -89 -1 -122 20 -21 34 -25 80 -25 55 0 93
12 107 34 13 19 9 91 -6 111 -11 15 -30 20 -84 23 -65 4 -73 2 -96 -21z"/>
<path d="M16566 2107 c-35 -35 -35 -89 -1 -122 20 -21 34 -25 80 -25 55 0 93
12 107 34 13 19 9 91 -6 111 -11 15 -30 20 -84 23 -65 4 -73 2 -96 -21z"/>
<path d="M16850 2117 c-31 -16 -47 -70 -31 -110 14 -36 52 -50 125 -45 69 5
96 29 96 85 0 55 -36 83 -107 83 -32 0 -69 -6 -83 -13z"/>
<path d="M14946 1859 c-21 -16 -26 -29 -26 -64 0 -35 5 -48 26 -64 44 -35 160
-26 186 13 4 6 8 29 8 51 0 22 -4 45 -8 51 -26 39 -142 48 -186 13z"/>
<path d="M15216 1859 c-21 -16 -26 -29 -26 -64 0 -35 5 -48 26 -64 44 -35 160
-26 186 13 4 6 8 29 8 51 0 22 -4 45 -8 51 -26 39 -142 48 -186 13z"/>
<path d="M15486 1857 c-35 -35 -35 -89 -1 -122 20 -21 34 -25 80 -25 55 0 93
12 107 34 13 19 9 91 -6 111 -11 15 -30 20 -84 23 -65 4 -73 2 -96 -21z"/>
<path d="M15756 1857 c-35 -35 -35 -89 -1 -122 20 -21 34 -25 80 -25 55 0 93
12 107 34 13 19 9 91 -6 111 -11 15 -30 20 -84 23 -65 4 -73 2 -96 -21z"/>
<path d="M16026 1857 c-35 -35 -35 -89 -1 -122 20 -21 34 -25 80 -25 55 0 93
12 107 34 13 19 9 91 -6 111 -11 15 -30 20 -84 23 -65 4 -73 2 -96 -21z"/>
<path d="M16296 1857 c-35 -35 -35 -89 -1 -122 20 -21 34 -25 80 -25 55 0 93
12 107 34 13 19 9 91 -6 111 -11 15 -30 20 -84 23 -65 4 -73 2 -96 -21z"/>
<path d="M16566 1857 c-35 -35 -35 -89 -1 -122 20 -21 34 -25 80 -25 55 0 93
12 107 34 13 19 9 91 -6 111 -11 15 -30 20 -84 23 -65 4 -73 2 -96 -21z"/>
<path d="M16850 1867 c-31 -16 -47 -70 -31 -110 14 -36 52 -50 125 -45 69 5
96 29 96 85 0 55 -36 83 -107 83 -32 0 -69 -6 -83 -13z"/>
<path d="M14908 1619 c-14 -8 -18 -24 -18 -72 0 -36 5 -68 12 -75 9 -9 75 -12
235 -12 254 0 243 -4 243 89 0 81 1 81 -243 81 -125 0 -219 -5 -229 -11z"/>
<path d="M15456 1608 c-9 -12 -16 -43 -16 -68 0 -85 -38 -79 521 -82 408 -3
499 -1 512 11 23 18 24 123 1 145 -14 14 -74 16 -509 16 l-494 0 -15 -22z"/>
<path d="M16571 1616 c-7 -9 -11 -41 -9 -83 l3 -68 230 -3 c207 -2 231 -1 242
15 18 24 16 104 -3 131 -15 22 -19 22 -233 22 -176 0 -221 -3 -230 -14z"/>
<path d="M435 2076 c-14 -10 -20 -29 -22 -77 -5 -92 8 -113 77 -119 l55 -5 3
-197 2 -198 -48 0 c-75 0 -87 -14 -87 -103 0 -113 -15 -107 271 -107 240 0
243 0 258 22 21 30 21 136 0 166 -12 18 -25 22 -65 22 l-49 0 0 265 c0 295 -3
314 -61 334 -48 17 -310 14 -334 -3z"/>
<path d="M1135 2081 c-52 -13 -94 -40 -110 -71 -12 -24 -15 -81 -15 -338 0
-302 0 -310 22 -337 12 -15 40 -36 62 -46 37 -17 70 -19 331 -19 160 0 306 5
325 10 20 5 51 26 70 45 l35 36 0 314 c0 301 -1 315 -21 341 -11 15 -38 37
-60 48 -36 20 -57 21 -324 23 -157 1 -298 -2 -315 -6z m443 -403 l2 -198 -145
0 -145 0 0 200 0 201 143 -3 142 -3 3 -197z"/>
<path d="M2000 2079 c-19 -6 -47 -20 -63 -31 -54 -38 -57 -61 -57 -374 0 -320
2 -330 67 -374 l36 -25 306 -3 c339 -3 366 0 416 59 l25 31 0 309 c0 349 0
348 -72 389 -43 25 -44 25 -333 27 -175 1 -304 -2 -325 -8z m450 -399 l0 -200
-145 0 -145 0 0 193 c0 107 3 197 7 200 3 4 69 7 145 7 l138 0 0 -200z"/>
<path d="M2796 2068 c-11 -15 -16 -45 -16 -90 0 -83 12 -98 81 -98 l49 0 0
-200 0 -200 -49 0 c-66 0 -81 -21 -81 -112 0 -102 -11 -98 274 -98 286 0 271
-6 271 107 0 89 -12 103 -87 103 l-48 0 0 276 c0 160 -4 283 -10 294 -16 31
-67 40 -221 40 -141 0 -149 -1 -163 -22z"/>
<path d="M516 1179 c-21 -5 -51 -18 -67 -30 -57 -41 -59 -51 -59 -371 0 -335
2 -344 80 -385 42 -22 50 -23 344 -23 275 0 305 2 343 20 25 11 51 33 63 52
19 31 20 50 20 340 l0 306 -26 32 c-54 64 -60 65 -374 67 -157 1 -302 -3 -324
-8z m444 -399 l0 -200 -145 0 -145 0 0 200 0 200 145 0 145 0 0 -200z"/>
<path d="M1306 1168 c-18 -26 -22 -138 -6 -169 9 -15 22 -19 65 -19 l55 0 0
-200 0 -200 -49 0 c-65 0 -81 -21 -81 -108 0 -109 -17 -102 269 -102 187 0
251 3 259 12 28 36 25 153 -4 183 -10 9 -34 15 -65 15 l-49 0 0 278 0 279 -26
24 c-25 23 -32 24 -189 27 -160 3 -163 3 -179 -20z"/>
<path d="M1926 1175 c-31 -31 -33 -159 -3 -184 7 -5 35 -11 62 -13 l50 -3 3
-197 2 -198 -49 0 c-58 0 -77 -15 -87 -66 -7 -41 2 -112 18 -131 8 -10 67 -13
259 -13 286 0 269 -7 269 102 0 87 -16 108 -81 108 l-49 0 0 264 c0 151 -4
276 -10 291 -17 44 -62 55 -224 55 -117 0 -148 -3 -160 -15z"/>
<path d="M2624 1181 c-46 -12 -89 -40 -108 -71 -14 -24 -16 -69 -16 -332 0
-286 1 -305 20 -336 12 -19 38 -41 63 -52 38 -18 68 -20 343 -20 294 0 302 1
344 23 78 41 80 49 80 388 0 291 0 297 -22 329 -13 18 -41 43 -63 54 -38 20
-57 21 -325 23 -157 1 -299 -2 -316 -6z m446 -401 l0 -200 -145 0 -145 0 0
200 0 200 145 0 145 0 0 -200z"/>
<path d="M4414 1076 c-32 -32 -34 -38 -34 -101 0 -63 2 -69 34 -101 l34 -34
6372 0 6372 0 34 34 c32 32 34 38 34 101 0 63 -2 69 -34 101 l-34 34 -6372 0
-6372 0 -34 -34z"/>
</g>
</svg>
